<svg xmlns="http://www.w3.org/2000/svg" id="a" viewBox="131.65 131.65 360 131.09"><path d="m296.8715,237.9081v11.7883c0,2.6205.3903,3.7914,1.0593,5.3525l.1115.2788h-8.0607c.7248-1.7842,1.0594-3.1781,1.0594-5.6314v-11.7883h-.3078c-.859,0-4.3848,1.4544-6.1878,2.3816l-.4479-.2868,2.2563-5.6074,15.2877-.1434,2.0027,5.7508-.3634.2868s-4.7786-2.3816-6.0218-2.3816h-.3874Zm-46.013,13.7318h-2.5515v-5.6712h1.3468c1.3939,0,3.7914,1.1462,3.7914,1.1462v-5.5023s-2.3974.955-3.7914.955h-1.3468v-4.9383h2.2375c2.4532,0,5.0882,1.0527,6.9839,2.5024l.3871-.2094-2.0329-5.6702h-14.7042c.6133,1.1709,1.3939,3.0108,1.3939,6.3004v7.6385c0,3.0665-.7806,5.0738-1.9515,7.0809h15.7397l1.8639-6.2526-.4816-.2192s-4.7585,2.8397-6.8842,2.8397Zm122.3603-8.1236c1.0419-1.0174,1.7692-2.456,1.7692-3.934,0-3.7356-2.9139-5.9093-7.8059-5.9093-4.9453,0-7.5769,2.3655-7.5769,5.332,0,1.6283.8156,2.6337,2.4071,2.6337,1.0205,0,1.8966-.6058,2.261-1.2209-.1863-.222-.5147-.7526-.5147-1.4004,0-.9915,1.0508-1.7536,2.7321-1.7536,1.7547,0,3.2968.9688,3.2968,2.6169,0,1.1499-.3476,2.0597-1.7695,2.7746-.6214.3124-.8947.8061-.8947,1.4386,0,.422.216,1.0311.8667,1.3004,1.681.826,2.5951,1.8933,2.5951,3.5271,0,2.0875-1.5595,3.332-3.7494,3.332-2.3753,0-3.2293-1.153-3.2293-2.0299,0-.4241.17-1.19.4851-1.6479-.3351-.5707-1.1515-1.1535-2.2004-1.1535-1.5701,0-2.6249,1.2133-2.6249,3.0611,0,2.9665,2.6029,5.3837,7.9459,5.3837,5.2643,0,9.221-2.7232,9.221-7.063,0-2.4476-1.2933-4.1262-3.2146-5.2875Zm-66.7296,6.5397c-1.7284,0-3.0666,1.3381-3.0666,2.9551s1.3382,2.955,3.0666,2.955,3.0665-1.3381,3.0665-2.955-1.3381-2.9551-3.0665-2.9551Zm-33.3598-8.2091c-3.1679-1.1536-4.0597-1.4356-4.0597-2.7141,0-1.5834,1.4114-2.0292,2.3433-2.0292,2.3377,0,4.9107,1.3181,7.5201,3.4368h.5825l-.6004-6.4078-1.6853.6133c-1.5218-.3737-3.0522-.677-5.7703-.677-5.3332,0-7.6072,2.5115-7.6072,6.1834,0,4.1146,3.2135,5.1182,6.9937,6.4989,2.9848,1.0901,4.5804,1.9153,4.5804,3.3603,0,1.5532-.8465,2.5633-3.021,2.5633-3.2618,0-6.376-2.7195-8.2787-4.3922h-.7456l.6524,7.0127,1.8483-.5815c2.2928.5958,3.7364.8682,6.446.8682,6.0353,0,8.1855-3.4441,8.1855-6.893,0-4.3319-3.0495-5.2637-7.384-6.8421Zm81.373,7.3568c0,4.947-3.9306,6.6924-8.6081,6.6924s-8.5294-1.7171-8.5294-6.4376c0-2.5458,1.5324-4.2975,3.5332-5.3421-1.798-.6881-3.1908-2.0473-3.1908-4.7421,0-3.3483,3.3089-5.6537,8.1852-5.6537s8.2432,1.9212,8.2432,5.6537c0,2.4321-1.3271,3.7929-3.0416,4.5463,1.8979.8774,3.4083,2.4655,3.4083,5.2832Zm-11.6525-9.2666c0,1.3155.8402,2.5823,3.0455,2.5823,2.2577,0,3.0454-1.2668,3.0454-2.5823,0-1.7957-1.4177-2.4848-3.0454-2.4848-1.5752,0-3.0455.689-3.0455,2.4848Zm6.3727,9.1488c0-1.511-.9362-2.9747-3.3285-2.9747s-3.2766,1.4638-3.2766,2.9747c0,1.6527,1.2482,2.9275,3.2766,2.9275,2.0803,0,3.3285-1.2748,3.3285-2.9275Zm45.4446-5.6164c.9466-1.0146,1.5781-2.4317,1.5781-3.8873,0-3.7356-2.9138-5.9093-7.8059-5.9093-4.9452,0-7.5768,2.3655-7.5768,5.332,0,1.6283.8156,2.6337,2.4071,2.6337,1.0205,0,1.8965-.6058,2.261-1.2209-.1862-.222-.5147-.7526-.5147-1.4004,0-.9915,1.0509-1.7536,2.7321-1.7536,1.7548,0,3.2969.9688,3.2969,2.6169,0,1.1499-.2389,1.991-1.5049,2.7746-.5928.3669-.8946.8061-.8946,1.4386,0,.422.216,1.0311.8667,1.3004,1.6809.826,2.5951,1.8933,2.5951,3.5271,0,2.0875-1.5594,3.332-3.7494,3.332-2.3753,0-3.2292-1.153-3.2292-2.0299,0-.4241.17-1.19.485-1.6479-.3351-.5707-1.1514-1.1535-2.2003-1.1535-1.5702,0-2.6249,1.2133-2.6249,3.0611,0,2.9665,2.6029,5.3837,7.9459,5.3837,5.2643,0,9.221-2.7232,9.221-7.063,0-2.4795-1.3252-4.1716-3.2881-5.3342Zm-64.8016,6.2269l.0558-15.6115h-.7806l-6.2905,4.3467,1.8319,2.1983h-.1115v9.0665c0,2.4532-.3903,3.8472-1.1151,5.6314h7.5809l-.1115-.2788c-.6691-1.5611-1.0594-2.732-1.0594-5.3525Zm152.8756-71.9046c-18.1448-13.5421-46.1143,5.1191-56.2362,23.2808-8.7442,15.6894-3.617,25.7664,4.0201,30.2039,7.0365,4.0892,19.6881,3.4748,25.6626-7.551,2.1638-3.9928,2.3601-9.8186-.7982-13.6449-2.1917-2.6542-5.8909-3.4605-8.9948-3.0221,5.3128,3.7395,4.8793,10.6849,2.5245,15.1404-2.6279,4.9737-9.8169,9.099-15.3697,5.7265-5.8777-3.5694-5.2624-11.7205-.9374-19.3719,6.3126-11.1648,32.1806-38.1893,47.7558-26.9974,5.1206,3.6804,4.9986,8.1287,2.6955,12.1748-4.032,7.0822-12.283,10.8916-16.1347,8.5239-2.559-1.5738-2.128-4.3452-1.184-6.2014,1.245-2.4494,3.6024-4.5005,8.0534-6.561-5.228-1.6875-11.3496-.4863-14.1843,4.621-2.2288,4.0155-.6417,9.0875,4.0201,11.9539,8.2934,5.0993,20.2185,2.3923,25.1919-6.6597,3.625-6.598,3.0204-14.82-6.0845-21.6158Zm-55.8183,3.3052c0-3.0573-1.6698-5.4641-4.6397-5.4641-1.8867,0-3.1689,1.1593-3.1689,2.624,0,1.22.8667,2.1092,1.9804,2.1092.6974,0,1.2989-.1775,1.8439-.7401.1844.314.2303.6074.2303.8384,0,7.9321-27.8436,3.01-27.8436,19.7519,0,2.7831,1.2259,5.5407,4.0461,5.5407,1.8058,0,3.143-1.1058,3.143-2.8404,0-1.279-.6074-2.3675-2.1176-2.3675-.4163,0-.6524.0827-.8419.1659-.1538.0669-.2466.1213-.419.1213-.126,0-.2943-.2505-.2943-.4448,0-3.0048,2.1141-5.8301,5.6327-5.8301,3.3008,0,5.2038,2.2595,5.2038,6.1682,0,5.2248-3.739,9.7083-10.2544,9.7083-5.4666,0-10.4586-3.7186-10.4586-10.1301,0-9.4911,8.8038-17.988,18.3728-20.2488-.7597-1.8237-1.4532-4.73-1.4532-7.1966,0-9.4477,5.6172-12.8156,8.5673-12.8156,2.5205,0,4.1236,1.7798,4.1236,3.675,0,2.3497-2.2593,5.3858-5.1497,6.2993.9436,1.5083,2.5402,2.1799,4.0497,2.1799,3.7764,0,6.9363-2.6362,6.9363-6.9445,0-6.0937-6.2673-9.6422-12.0896-9.6706-7.8102-.038-13.5455,6.5788-13.5455,14.0297,0,3.2827.708,4.9067,1.8973,7.8742-9.8513.635-19.4653,8.1091-19.4653,19.9074,0,9.4749,8.3438,16.5781,18.8939,16.5781,11.9025,0,16.5205-8.5041,16.5205-14.0115,0-3.2404-.7677-5.46-2.1559-7.6282,10.1218-2.7607,12.4559-7.2541,12.4559-11.2385Zm42.1325,75.9436c-1.3683,1.4818-1.2145,3.6392.0981,4.8411,1.3113,1.2018,3.4831,1.1758,4.8514-.3059,1.3683-1.482,1.2132-3.6396-.0981-4.8414-1.3113-1.2017-3.4831-1.1756-4.8514.3062Zm-127.1875-114.5425c-2.307-.3759-4.295,1.2726-4.6221,3.6056-.327,2.3333,1.1182,4.5416,3.4252,4.9176,2.3057.3759,4.2937-1.2725,4.6221-3.6056.3271-2.3332-1.1195-4.5417-3.4252-4.9176Zm31.6074,42.328c1.7436-3.6688,4.696-9.4435,4.696-13.464,0-4.0251-2.5351-6.3913-6.3577-6.3913-3.5396,0-6.9389,1.5233-10.1813,4.7847.1323-.9015.216-1.6751.216-2.1414,0-3.6059-2.2116-5.5865-5.098-5.832-3.5361-.3003-6.6093,1.5492-8.3745,5.1073,1.072-.2977,1.8704-.4092,3.1393-.3894,1.725.0268,2.7945,1.2149,2.4497,3.9565-.4313,3.4137-1.9734,8.055-3.5921,12.5145,0,0-1.8523,5.3236-5.3831,14.8376l7.0219,1.3686c3.5157-9.5204,5.8212-16.0255,7.0705-19.6085.0002.0003.0003.0006.0005.0009,2.2315-5.6562,5.6098-9.1583,8.6978-9.1583,1.7342,0,2.8427.9948,2.6637,2.9634-.2784,3.0833-2.7141,7.2803-4.0731,10.1085-2.8148,5.8554-4.5809,9.5561-4.7493,12.8541-.175,3.4014,1.3285,6.1693,5.1683,6.4918,3.2842.2758,6.2136-1.4928,7.936-5.4219-1.0511.2324-1.9078.3395-2.8754.2877-1.6432-.088-2.3982-1.1279-2.2655-2.5868.2081-2.2922,1.1591-4.5347,3.8904-10.2819Zm-31.7847-21.0434c-.0865-3.5111-2.2415-5.2875-5.1743-5.2875-2.8679,0-5.8625,2.0358-6.9683,5.0421.8279-.2382,1.3401-.3156,2.2258-.3156,1.2778,0,2.0457.849,2.075,2.0427.0749,3.0423-1.8734,8.1521-2.8551,11.1874-2.4527,7.5838-3.5424,11.289-3.4596,14.6529.0939,3.8151,2.4094,5.7556,5.5425,5.7556,3.0827,0,6.0819-1.8685,7.5098-6.0735-.9588.3989-1.6012.5473-2.6301.5473-1.612,0-2.4356-.9335-2.473-2.4522-.0763-3.0982,1.767-8.0824,2.818-11.3254,1.6591-5.1199,3.4785-10.1501,3.3893-13.7739Zm-17.5242-22.8745l-7.3193-.1778c-1.116,5.8898-2.3322,12.0873-3.3995,17.4515h-3.4447l-.8075,3.7149h3.5104c-1.2856,6.4154-2.2114,10.922-2.2114,10.922-1.3809,6.9781-2.2469,12.0528-2.1518,15.9167.1107,4.4969,2.7366,7.3988,6.7621,7.3988,3.2096,0,6.674-1.6697,7.8145-6.7706-1.0963.5305-2.0265.8471-3.4387.8471-2.3988,0-3.4839-1.3126-3.5398-3.5846-.0737-2.9928,1.4913-10.938,2.6616-16.9822,0,0,.6206-2.9891,1.5664-7.7471h4.9524l.8089-3.7149h-5.0282c.9574-4.8865,2.1127-10.9203,3.2646-17.2737Zm-21.5467,16.2677c-3.3371,0-6.5755,3.0533-8.5437,6.8681-.6493-2.905-2.35-4.7671-5.3999-4.6925-3.6491.0892-6.4163,3.01-6.9871,6.6747,1.0307-.6122,2.0064-.9287,3.1702-.9572,1.6807-.0411,2.5959,1.1922,2.6688,4.1738.0612,2.5042-.4363,9.3374-1.0028,15.1883,0,0-.4059,4.2296-1.2362,12.7505l7.2774-.7543c1.6106-16.8026,2.2132-23.6446,2.2132-23.6446.6508-6.9624,4.2497-9.0511,5.4307-9.0799.0954-.0023.1033.1029.1418.2107.0841.2377.1462.5559.2693.8726.2788.7197.8544,1.4228,2.3575,1.386,2.4177-.0591,3.8929-2.5933,3.8402-4.7506-.0685-2.8027-1.6855-4.2456-4.1993-4.2456Zm-39.5997,51.1897c3.2586,0,5.8526-.5949,9.242-1.8629-2.4683,3.569-7.5227,6.4947-14.0445,6.4947-10.3378,0-19.3334-5.4555-24.9839-23.2156-2.9607-9.3063-5.1552-23.1673-5.451-38.4697-2.764,10.0596-3.3009,21.0746-3.2408,29.8737.0317,4.6515.207,8.8443.2588,12.2831.0616,4.0884-.2848,8.0844-1.2038,8.132-.2999.0156-.5381-.0415-.6464-.4468-2.3103-8.6389-6.2587-16.3864-10.1711-24.3691-3.3559-6.8473-6.3128-13.4262-7.1228-20.3466-2.785,19.3794,10.0461,36.8148,10.0461,56.1679,0,6.4785-3.1907,15.2421-13.1927,18.4758.077.952.1219,1.8838.1219,2.7859,0,12.8176-8.3833,23.1241-17.0686,23.1241-4.5293,0-5.8725-2.3768-5.8725-4.3604,0-1.6572,1.3818-3.6858,3.8768-3.6858,2.5632,0,3.6026,1.7433,3.8828,3.3451,4.6381-1.2533,7.6362-6.5029,7.6362-14.3821,0-1.761-.1695-3.6311-.4595-5.5704-3.0059.0742-6.4053-.2284-10.2364-.994.0135.3557.0225.714.0225,1.0778,0,10.9127-8.6732,18.8622-20.8331,18.8622-16.4173,0-31.9272-16.7541-31.9272-44.8686,0-18.7386,8.8004-28.9805,17.4752-32.7564,3.3511-5.2019,9.758-8.6167,16.5332-10.1684,2.3859-.5465,4.6385-.9053,6.8128-1.2125,1.8422-7.1588,7.874-13.0231,13.8249-15.3,5.9641-2.2821,18.827-3.6673,22.4466-8.8975.5995-.8662,1.8913-.4375,1.7448.6621-1.0666,8.0024,4.7063,24.5535,10.6399,36.042.6228-23.0725,7.5596-37.4242,11.3467-42.6513.6368-.8789,1.5539-.4647,1.5395.5292-.2876,19.7704,1.7974,40.9876,7.5589,57.2575,4.5222,12.77,10.5802,18.4449,21.4448,18.4449Zm-69.1098,20.0729c-1.8581-8.6319-5.4668-18.1165-7.4707-25.5654-.3082-1.1457-.5999-2.2965-.8753-3.4498-1.0094-.4512-1.9381-.752-2.7699-.752-.9156,0-1.867.6384-2.2599,1.0933-1.8407-.7859-1.3684-5.3875,3.1815-5.3875.2659,0,.5248.0067.7793.0175-.8475-4.6166-1.302-9.2368-1.0882-13.7431-5.9767-.6264-10.3405-4.5957-11.3021-11.14-2.1689.2686-4.3364.5028-6.4613.8046-2.3862.339-4.9174.8733-7.2084,1.704,7.7863.6882,16.3177,6.3456,16.3177,19.2774,0,11.4356-7.2451,18.8448-16.024,18.8448-6.5694,0-9.7056-4.2834-9.7056-7.8102,0-1.5878.478-3.2096,2.0182-4.3564.6677,4.5709,3.4026,6.3291,7.0067,6.3291,5.2032,0,9.0529-3.5972,9.0529-12.1126,0-8.0325-4.6854-14.8663-11.4881-14.8663-1.5732,0-3.1334.332-4.6256.9761-.2304.7078-.3553,1.473-.3553,2.3012,0,2.8198,1.3243,4.9743,3.6725,4.9743,1.955,0,3.2022-1.4321,3.2022-3.7099,1.7793.6182,3.2972,2.0735,3.2972,4.2753,0,2.5404-1.76,5.0003-6.1544,5.0003-5.327,0-7.9448-4.5604-7.9448-9.2487,0-.2246.0099-.4452.0191-.666-3.909,3.866-6.6568,10.5489-6.6568,19.8113,0,14.8568,8.6601,44.6891,24.8721,44.6891,8.496,0,12.3542-4.6227,12.3542-11.3382,0-6.814-4.6899-14.0707-12.9139-11.6034,1.3081-5.4291,5.0512-6.9341,8.1409-6.9341,6.0962,0,10.5219,5.1292,11.6233,12.752,3.5725.4079,6.8505.3474,9.7664-.1666Zm-9.7274-54.079c.6376-3.0763,1.6694-6.0686,3.1934-8.9354-3.2949,1.8012-6.8761,2.7634-10.5397,3.4033.5773,2.4098,2.3681,5.0515,7.3464,5.5322Zm19.695-25.9922c-5.2061,2.0151-10.9101,2.309-16.201,4.0567-5.0262,1.6603-8.7563,4.6398-10.3028,9.1767,3.9945-.5832,7.8309-1.3441,11.8558-3.2262.0873-.5164.2679-1.0508.5706-1.564.9679-1.6407,2.6885-2.4187,3.8431-1.7375,1.1546.6811,1.3059,2.5633.338,4.204-.6448,1.0929-1.622,1.7898-2.545,1.9409-1.4143,4.0083-1.9639,8.2463-1.9312,12.599,1.8434-.6669,3.3477-1.8317,4.2978-3.3096.592.2114,1.3348,1.5329,1.3348,2.8622,0,2.6401-2.2049,5.0888-5.2577,6.3925.6236,5.5053,1.9515,11.1078,3.4514,16.5883.0947.346.1973.7026.2981,1.0568,1.6501.9171,3.104,1.6866,4.7723,1.6866.6744,0,1.0325-.2079,1.3729-.6382,1.5397.4559,1.4675,5.0246-3.3949,5.0246-.3072,0-.6125-.0175-.9162-.0469,2.2229,6.9977,4.8746,14.8252,6.245,21.9659,4.2846-2.9615,6.733-7.7906,6.733-14.3948,0-13.8681-11.8685-35.5365-4.564-62.6368Zm74.1221,44.9013c1.0768,0,2.0482-.4218,3.0668-1.1186-.1481,3.9111-2.676,7.3388-6.5795,7.3388-2.1784,0-3.5697-.9496-4.8797-2.5031-1.6892,3.8285-4.6737,6.1801-8.2568,6.1752-5.799-.008-10.7381-4.863-10.7381-18.8558,0-13.8198,6.3779-20.8116,12.8971-20.8116,2.4144,0,3.9417.9816,5.2765,2.4668l.1645-3.267,6.8381-1.3431c-.4561,7.1947-1.0139,14.4196-1.0139,20.6094,0,8.5276.6186,11.309,3.2249,11.309Zm-14.0172-25.4809c-2.7836,0-5.4743,4.8005-5.4743,15.748,0,9.3876,1.595,13.7017,4.3676,13.7017,4.3191,0,4.7593-7.0138,4.9942-17.4591.1608-7.1487-.7581-11.9906-3.8875-11.9906Zm218.3582,72.8051c-5.6045,8.7542-18.9257,15.2505-26.5085,10.0903-6.5698-4.471-5.7398-12.0719-1.2437-18.9041,6.0606-9.2088,17.8478-15.9384,26.0603-10.3494,5.2426,3.5675,7.4449,10.1761,1.6918,19.1632Zm-3.853-15.5355c-4.5465-3.0937-15.0435,7.1833-19.586,14.0865-1.9583,2.977-2.6452,6.2027-.7107,7.519,4.024,2.7385,14.9626-7.0802,19.4799-13.944,2.1095-3.2056,2.909-6.2378.8167-7.6615Zm12.8831-12.669c-.1882-.4394-.443-.8154-.7647-1.1276-.3222-.3122-.6946-.5548-1.1186-.7267s-.8683-.2579-1.3335-.2579c-.4715,0-.9208.086-1.3475.2579-.4272.1719-.8018.4145-1.1235.7267s-.5765.6882-.7647,1.1276c-.1878.4398-.2819.9276-.2819,1.4629,0,.5095.0878.9828.2629,1.4195.1751.4362.4172.814.7267,1.1326.3091.3186.6783.5688,1.1086.7502.4303.1819.9032.2724,1.4195.2724.4652,0,.9095-.086,1.3335-.2579s.7964-.414,1.1186-.7267c.3217-.3118.5765-.6882.7647-1.1276.1878-.4398.2819-.9272.2819-1.4625s-.0941-1.0231-.2819-1.4629Zm-.6932,2.6625c-.1403.3602-.3344.6706-.5828.9317-.2489.2615-.5389.4638-.8701.6072s-.6882.2149-1.0706.2149c-.4272,0-.8095-.0778-1.1471-.2339s-.6262-.3683-.8652-.6358c-.2389-.2679-.4222-.5801-.5493-.9367-.1276-.357-.1914-.7394-.1914-1.1471,0-.4335.0701-.8317.2104-1.195s.3344-.6756.5833-.9367c.2484-.2615.5398-.4638.8742-.6072.3348-.1434.6964-.2149,1.0851-.2149.3824,0,.7394.0715,1.0706.2149s.6213.3457.8701.6072c.2484.2611.4425.5733.5828.9367s.2104.7615.2104,1.195c0,.4394-.0701.8394-.2104,1.1996Zm-3.2308-.8462h.6118l1.0226,1.6919h.7362l-1.1091-1.7394c.2932-.0321.5385-.1308.7362-.2964.1973-.1656.2964-.4272.2964-.7842,0-.4014-.1213-.6914-.3634-.8697s-.6023-.2674-1.0801-.2674h-1.5009v3.957h.6502v-1.6919Zm0-.5543v-1.1566h.7837c.0955,0,.1946.0045.2964.014.1018.01.1941.0335.2774.0719.0828.038.1511.0923.2054.1624.0538.0701.081.1656.081.2869,0,.1466-.0253.2597-.0765.3394-.0507.0796-.1176.1416-.2005.1864-.0828.0443-.1801.0715-.2919.081-.1113.0095-.2276.0145-.3489.0145h-.7263Z"/></svg>